<svg xmlns="http://www.w3.org/2000/svg" viewBox="0 0 200 93"><path fill="#07213f" d="M189.7 44.41c-7.14 0-11.7 4.15-11.7 11.22 0 6.87 4.98 10.65 11.7 10.65 7.25 0 10.3-2.8 10.3-3.01v-9.4h-9.98v3.43h6.24v4.16c-2.08 1.5-6.56 1.24-6.56 1.24-4.14 0-7.96-1.77-7.96-7.07 0-4.69 3.43-7.63 7.96-7.63 3.29 0 5.64.88 6.92 1.66l1.54-3.3c-1.7-.98-4.58-1.95-8.46-1.95zM0 44.78V66h13.4c5.76 0 7.06-3.16 7.06-6.5 0-1.68-.9-3.8-3.05-4.69 1.43-1.05 1.87-2.38 1.87-4.11 0-4.28-2.3-5.93-7.26-5.93zm167.75 0v14.47l-12.61-14.07-.34-.37h-2.94v21.22h3.74v-14.7L168.8 66h2.7V44.8zm-113.86.02V66h17.9v-3.58H57.64v-5.28h10.25v-3.42H57.64v-5.34h14.13V44.8zm35.45 0v3.58h7.91v17.64H101V48.38h7.91V44.8zm-10.67 0V66h3.75V44.8zm-51.31 0v21.23h3.74v-8.75h5.56l5.47 8.73h4.42l-5.68-8.73c3.18-.25 5.86-2.17 5.86-6.28 0-5.09-3.95-6.2-7.63-6.2H27.36zm88.73 0v21.23h16.53v-3.58h-12.78V44.8zm22.6 0v21.23h3.75V44.8zM3.67 48.14h8.2c2.27 0 3.72.9 3.72 2.66 0 1.05-.31 2.86-2.88 2.86H3.67v-5.52zm27.43.1h8.04c1.42 0 3.86.37 3.86 3.06 0 2.26-2.21 2.57-3.88 2.57H31.1v-5.63zM3.67 57h9.22c2.02 0 3.75.44 3.75 2.84 0 2.39-2.04 2.8-3.24 2.8H3.67zm83.3 19.34c-2.58 0-4.53.65-5.64 1.88a3.9 3.9 0 00.31 5.45l.33.31-.36.26a4.22 4.22 0 00-1.73 3.9c.18 2.18 2.14 4.5 7.07 4.5h.01c4.93 0 6.89-2.32 7.08-4.5a4.24 4.24 0 00-1.73-3.9l-.36-.25.32-.3a3.92 3.92 0 00.32-5.47c-1.1-1.23-3.05-1.88-5.63-1.88zm16.35 0c-2.58 0-4.52.65-5.63 1.88a3.74 3.74 0 00-.94 2.97c.06.66.34 1.63 1.25 2.49l.32.3-.35.26a4.22 4.22 0 00-1.73 3.9c.18 2.18 2.14 4.5 7.06 4.5h.02c4.92 0 6.88-2.32 7.07-4.5a4.23 4.23 0 00-1.72-3.9l-.36-.25.32-.3a3.94 3.94 0 001.26-2.5 3.74 3.74 0 00-.94-2.97c-1.11-1.23-3.06-1.88-5.63-1.88zm-29.94.43v15.6h3.02v-15.6zm43.68 0l-4.47 9.73-.02 2.72h8.87v3.14h2.73v-3.14h1.78v-2.72h-1.78v-9.73h-7.11zm-30.1 2.3c1.73 0 3.05.35 3.6.98.23.24.3.5.27.86-.1.85-1.32 1.7-3.87 1.7-2.54 0-3.77-.85-3.86-1.7-.04-.36.04-.63.25-.87.57-.62 1.88-.97 3.61-.97zm16.36 0c1.73 0 3.04.35 3.6.98.22.24.3.5.26.86-.08.85-1.31 1.7-3.86 1.7s-3.77-.85-3.87-1.7c-.03-.36.05-.63.26-.87.56-.62 1.88-.97 3.6-.97zm15.48.44h2.64v6.99h-5.85zm-31.84 6.1c.71 0 3.1.08 4.01 1.06.3.32.4.7.35 1.24-.13 1.48-2.34 2-4.37 2-2.02 0-4.23-.52-4.36-2-.05-.54.06-.92.35-1.24.62-.67 2.08-1.06 4.02-1.06zm16.36 0c.71 0 3.1.08 4 1.06.3.32.4.7.36 1.24-.13 1.48-2.35 2-4.38 2-2.02 0-4.23-.52-4.35-2-.05-.54.06-.92.34-1.24.61-.66 2.12-1.06 4.03-1.06z"/><path fill="#ffc72c" d="M103.03 17.73c-1.1-.68-.02-1.7 1.01-1.7 1.65 0 3.15 1.44 3.15 1.44s-2.86 1.06-4.16.26M87.67 32.1c-3.82 1.02-2.8-7.36 2.05-14.06 4.94-6.83 8.81-8.88 8.81-8.88-.83 9.97-6.79 21.85-10.86 22.94m23.8-27.08c-2.43-1.16-5.87-.58-9 .57l-.02-.01c.24-4.32-.42-5.58-.42-5.58l-3.58 1s.47 2.5.24 6.38c-9.3 5.38-15.57 14.38-17.3 20.43-1.88 6.6 3.37 8.83 7.8 5.59 10.9-8.01 13.12-26.24 13.12-26.24 3.3-1 5.91-.47 7.45.86 3.87 3.33-1.15 8.45-1.15 8.45s-1.3-1.52-3.74-1.74c-3.9-.35-5.9 4.35-.7 4.85.86.08 3.16-.25 4.02-.67.87 1.6.6 9.04-4.42 11.24-4.51 1.98-6.18-.8-6.18-.8-.15 0-2.44 3.02-2.3 3.3 0 0 2.4 3.57 7.64 2.04 4.13-1.2 6.12-4.81 7.18-7.4 1.76-4.3.49-8.1-.2-9.1 6.88-4.8 5.87-11.32 1.57-13.17"/></svg>